<?xml version="1.0" standalone="no"?>
<!DOCTYPE svg PUBLIC "-//W3C//DTD SVG 20010904//EN"
 "http://www.w3.org/TR/2001/REC-SVG-20010904/DTD/svg10.dtd">
<svg version="1.0" xmlns="http://www.w3.org/2000/svg"
 width="512.000000pt" height="512.000000pt" viewBox="0 0 512.000000 512.000000"
 preserveAspectRatio="xMidYMid meet" stroke-width="1">

<g transform="translate(0.000000,512.000000) scale(0.100000,-0.100000)"
fill="#fff" stroke="none">
<path d="M223 4937 l-183 -183 0 -750 0 -751 26 -27 27 -26 413 0 414 0 0
-124 0 -125 -53 -24 c-69 -31 -123 -86 -156 -156 -26 -55 -26 -58 -26 -291 0
-233 0 -236 26 -291 33 -70 87 -125 156 -156 52 -24 53 -25 53 -69 l0 -44
-257 0 -257 0 -183 -183 -183 -183 0 -750 0 -751 26 -27 27 -26 751 0 750 0
183 183 183 183 0 257 0 257 44 0 c44 0 45 -1 69 -53 31 -69 86 -123 156 -156
55 -26 58 -26 291 -26 233 0 236 0 290 26 70 33 126 89 157 157 l24 52 85 0
84 0 0 -414 0 -413 26 -27 27 -26 751 0 750 0 183 183 183 183 0 752 0 753
-25 24 -24 25 -416 0 -415 0 0 44 c0 44 1 45 53 69 69 31 123 86 156 156 26
55 26 58 26 291 0 233 0 236 -26 291 -33 70 -87 125 -156 156 l-53 24 0 125 0
124 257 0 257 0 183 183 183 183 0 752 0 753 -25 24 -24 25 -753 0 -752 0
-183 -183 -183 -183 0 -257 0 -257 -85 0 -85 0 -15 38 c-38 91 -119 164 -211
190 -56 16 -432 16 -488 0 -92 -26 -173 -99 -211 -190 -14 -36 -18 -38 -60
-38 l-45 0 0 415 0 416 -25 24 -24 25 -753 0 -752 0 -183 -183z m1382 -57
l-80 -80 -605 0 -605 0 80 80 80 80 605 0 605 0 -80 -80z m3120 0 l-80 -80
-605 0 -605 0 80 80 80 80 605 0 605 0 -80 -80z m-2925 -340 l0 -300 -55 0
c-46 0 -60 -4 -80 -25 l-25 -24 0 247 0 247 77 77 c43 43 79 78 80 78 2 0 3
-135 3 -300z m3040 -985 l-80 -80 0 605 0 605 78 78 77 77 3 -602 2 -603 -80
-80z m-3360 445 l0 -640 -640 0 -640 0 0 640 0 640 640 0 640 0 0 -640z m3120
0 l0 -640 -640 0 -640 0 0 640 0 640 640 0 640 0 0 -640z m-1857 306 c18 -7
43 -25 56 -40 l24 -26 -47 0 c-36 0 -52 -5 -71 -25 -56 -55 -11 -135 74 -135
38 0 39 -12 5 -39 -47 -37 -90 -43 -290 -39 l-191 3 -36 28 c-45 34 -47 47 -7
47 43 0 77 19 90 51 24 57 -18 109 -89 109 l-44 0 24 26 c44 48 69 53 277 54
142 0 201 -4 225 -14z m-1056 -214 c12 -7 42 -12 67 -12 l46 0 0 -223 0 -222
-80 -80 -80 -80 0 330 c1 262 3 327 13 314 7 -9 22 -21 34 -27z m386 -65 c31
-67 86 -122 157 -156 54 -26 57 -26 290 -26 233 0 236 0 290 26 70 33 126 89
157 157 l24 52 85 0 84 0 0 -414 0 -413 26 -27 27 -26 413 0 414 0 0 -124 0
-125 -53 -24 c-69 -31 -123 -86 -156 -156 -26 -55 -26 -58 -26 -291 0 -233 0
-236 26 -291 33 -70 87 -125 156 -156 52 -24 53 -25 53 -69 l0 -44 -257 0
-257 0 -183 -183 -183 -183 0 -257 0 -257 -84 0 -85 0 -24 53 c-31 69 -86 123
-156 156 -55 26 -58 26 -291 26 -233 0 -236 0 -291 -26 -70 -33 -125 -87 -156
-156 -24 -52 -25 -53 -69 -53 l-44 0 0 415 0 416 -25 24 -24 25 -416 0 -415 0
0 44 c0 44 1 45 53 69 69 31 123 86 156 156 26 55 26 58 26 291 0 233 0 236
-26 291 -33 70 -87 125 -156 156 l-53 24 0 125 0 124 257 0 257 0 183 183 183
183 0 257 0 257 44 0 c44 0 45 -1 69 -53z m-1142 -1339 c15 -36 60 -54 98 -39
34 14 51 48 51 98 l0 37 30 -29 c46 -44 52 -79 48 -296 l-3 -196 -28 -36 c-15
-20 -32 -37 -38 -37 -5 0 -9 17 -9 39 0 47 -38 91 -80 91 -42 0 -80 -44 -80
-91 0 -22 -4 -39 -9 -39 -6 0 -23 17 -38 37 l-28 36 -3 191 c-2 105 -1 206 3
224 3 18 20 49 38 69 l32 37 3 -35 c1 -19 7 -46 13 -61z m3120 0 c15 -36 60
-54 98 -39 34 14 51 48 51 98 l0 37 30 -29 c46 -44 52 -79 48 -296 l-3 -196
-28 -36 c-15 -20 -32 -37 -38 -37 -5 0 -9 17 -9 39 0 47 -38 91 -80 91 -42 0
-80 -44 -80 -91 0 -22 -4 -39 -9 -39 -6 0 -23 17 -38 37 l-28 36 -3 191 c-2
105 -1 206 3 224 3 18 20 49 38 69 l32 37 3 -35 c1 -19 7 -46 13 -61z m-3131
-973 c0 -54 15 -89 44 -103 15 -8 -76 -11 -314 -11 l-335 -1 80 80 80 80 222
0 223 0 0 -45z m685 -35 l-80 -80 -255 1 c-183 0 -249 3 -234 11 29 14 44 49
44 103 l0 45 302 0 303 0 -80 -80z m2435 35 c0 -54 15 -89 44 -103 15 -8 -76
-11 -314 -11 l-335 -1 80 80 80 80 222 0 223 0 0 -45z m685 -35 l-80 -80 -255
1 c-183 0 -249 3 -234 11 29 14 44 49 44 103 l0 45 302 0 303 0 -80 -80z
m-2925 -340 l0 -300 -54 0 c-44 0 -58 -4 -80 -26 l-26 -27 0 249 0 249 77 77
c43 43 79 78 80 78 2 0 3 -135 3 -300z m3040 -985 l-80 -80 0 605 0 605 78 78
77 77 3 -602 2 -603 -80 -80z m-3360 445 l0 -640 -640 0 -640 0 0 640 0 640
640 0 640 0 0 -640z m3120 0 l0 -640 -640 0 -640 0 0 640 0 640 640 0 640 0 0
-640z m-1827 287 c20 -15 37 -32 37 -38 0 -5 -17 -9 -39 -9 -28 0 -45 -7 -65
-26 -56 -56 -13 -134 73 -134 41 0 39 -13 -6 -47 l-36 -28 -196 -3 c-217 -4
-252 2 -296 48 l-29 30 37 0 c50 0 84 17 97 51 24 57 -18 109 -89 109 l-44 0
24 26 c46 50 67 54 290 51 l206 -2 36 -28z m-1086 -195 c12 -7 42 -12 67 -12
l46 0 0 -223 0 -222 -80 -80 -80 -80 0 330 c1 262 3 327 13 314 7 -9 22 -21
34 -27z"/>
</g>
</svg>
